# xmcd
#
# Track frame offsets:
#	150
#	16403
#	33609
#	46609
#	61285
#	75004
#	88103
#	100523
#	111571
#	123348
#	139576
#	153301
#	169116
#	183065
#	198170
#	211921
#	227974
#	242871
#	259088
#	274908
#	288250
#
# Disc length: 4071 seconds
#
# Revision: 691375172
# Processed by: cddbd v1.5.2PL0 Copyright (c) Steve Scherf et al.
# Submitted via: EZCDAudioConverter 8.5.0.1
#
DISCID=150fe515
DTITLE=Tracy Lawrence - The Very Best Of Tracy Lawrence
DYEAR=2007
DGENRE=Country
TTITLE0=Sticks And Stones
TTITLE1=Today's Lonely Fool
TTITLE2=Runnin' Behind
TTITLE3=Somebody Paints The Wall
TTITLE4=Alibis
TTITLE5=Can't Break It To My Heart
TTITLE6=My Second Home
TTITLE7=If The Good Die Young
TTITLE8=Renegades, Rebels And Rogues
TTITLE9=I See It Now
TTITLE10=As Any Fool Can See
TTITLE11=Texas Tornado
TTITLE12=If The World Had A Front Porch
TTITLE13=If You Loved Me
TTITLE14=Time Marches On
TTITLE15=Stars Over Texas
TTITLE16=Is That A Tear
TTITLE17=Better Man, Better Off
TTITLE18=How A Cowgirl Says Goodbye
TTITLE19=Lessons Learned
TTITLE20=Paint Me A Birmingham
EXTD=
EXTT0=
EXTT1=
EXTT2=
EXTT3=
EXTT4=
EXTT5=
EXTT6=
EXTT7=
EXTT8=
EXTT9=
EXTT10=
EXTT11=
EXTT12=
EXTT13=
EXTT14=
EXTT15=
EXTT16=
EXTT17=
EXTT18=
EXTT19=
EXTT20=
PLAYORDER=
